<?xml version="1.0" encoding="UTF-8"?> <svg xmlns="http://www.w3.org/2000/svg" width="529" height="100" viewBox="0 0 529 100" fill="none"> <g clip-path="url(#clip0)"> <path d="M193.001 58.2927V67.7247H175.745V98.8152H164.352V58.2927H193.001Z" fill="#0A414F"></path> <path d="M254.525 77.4606C254.594 80.8434 254.023 84.2086 252.843 87.3786C251.829 90.0124 250.282 92.4068 248.298 94.4108C246.428 96.2602 244.194 97.6982 241.738 98.6332C239.215 99.5815 236.54 100.06 233.845 100.046C231.282 100.048 228.74 99.5792 226.346 98.6636C223.925 97.7551 221.721 96.3477 219.876 94.5323C217.926 92.5889 216.381 90.2759 215.331 87.728C214.129 84.754 213.547 81.5648 213.619 78.3568C213.557 75.2318 214.145 72.1281 215.346 69.2437C216.409 66.7475 217.954 64.4866 219.892 62.5913C221.746 60.7995 223.948 59.4089 226.361 58.5056C228.755 57.5899 231.297 57.1215 233.86 57.1235C236.595 57.1071 239.31 57.5856 241.874 58.536C244.318 59.4297 246.558 60.8032 248.465 62.5761C250.408 64.3608 251.956 66.5339 253.01 68.9552C254.094 71.6553 254.61 74.5511 254.525 77.4606H224.376C224.328 79.3458 224.761 81.2121 225.633 82.8829C226.444 84.3511 227.579 85.6137 228.951 86.5736C230.387 87.5774 231.994 88.3084 233.693 88.7304C235.529 89.2076 237.418 89.4475 239.314 89.4442C241.268 89.4518 243.216 89.2275 245.117 88.776C246.844 88.3709 248.483 87.65 249.95 86.6496C251.333 85.678 252.473 84.3993 253.283 82.9133C254.145 81.2283 254.572 79.3537 254.525 77.4606ZM224.376 77.4606L241.42 72.0992C241.415 71.4263 241.249 70.7645 240.935 70.1697C240.621 69.5749 240.169 69.0645 239.617 68.6818C237.978 67.6451 236.051 67.1608 234.118 67.2996C232.818 67.2285 231.516 67.419 230.291 67.8598C229.065 68.3007 227.94 68.9829 226.982 69.8665C226.055 70.8871 225.346 72.0878 224.9 73.3941C224.455 74.7003 224.281 76.0845 224.391 77.4606H224.376Z" fill="#0A414F"></path> <path d="M283.582 58.2928V44.2739H294.975V58.2928H303.216V67.7247H294.975V98.8152H283.582V67.7247H275.34V58.2928H283.582Z" fill="#0A414F"></path> <path d="M355.817 58.2927V67.7247H338.545V98.8152H327.152V58.2927H355.817Z" fill="#0A414F"></path> <path d="M417.356 77.4605C417.425 80.8432 416.855 84.2085 415.675 87.3785C414.661 90.0122 413.113 92.4066 411.13 94.4107C409.26 96.26 407.025 97.6981 404.57 98.633C402.046 99.5813 399.371 100.06 396.676 100.046C394.088 100.057 391.52 99.5882 389.101 98.6634C386.68 97.755 384.477 96.3476 382.632 94.5322C380.682 92.5888 379.137 90.2757 378.087 87.7278C376.886 84.769 376.298 81.596 376.36 78.4022C376.298 75.2772 376.886 72.1735 378.087 69.2892C379.15 66.7929 380.694 64.532 382.632 62.6367C384.487 60.845 386.688 59.4543 389.101 58.551C391.52 57.6262 394.088 57.1576 396.676 57.1689C399.411 57.1525 402.126 57.631 404.691 58.5814C407.135 59.4796 409.376 60.8584 411.281 62.6367C413.186 64.4317 414.697 66.604 415.72 69.0158C416.838 71.6883 417.395 74.5628 417.356 77.4605H387.207C387.16 79.3457 387.593 81.2119 388.465 82.8827C389.271 84.3493 390.4 85.6118 391.768 86.5735C393.203 87.5773 394.811 88.3083 396.51 88.7302C398.345 89.2064 400.234 89.4463 402.13 89.4441C404.084 89.4516 406.032 89.2273 407.933 88.7758C409.661 88.3707 411.299 87.6499 412.766 86.6494C414.149 85.6778 415.29 84.3992 416.099 82.9131C416.966 81.2296 417.399 79.3548 417.356 77.4605ZM387.207 77.4605L404.251 72.099C404.247 71.4261 404.08 70.7643 403.766 70.1695C403.453 69.5747 403.001 69.0644 402.449 68.6816C400.809 67.6449 398.882 67.1606 396.949 67.2995C395.646 67.2263 394.342 67.4158 393.114 67.8567C391.886 68.2975 390.758 68.9809 389.798 69.8663C388.871 70.887 388.162 72.0876 387.717 73.3939C387.271 74.7002 387.098 76.0843 387.207 77.4605Z" fill="#0A414F"></path> <path d="M441.857 71.5066C442.028 69.4807 442.54 67.4984 443.372 65.6439C444.164 63.8825 445.345 62.3244 446.826 61.0874C448.478 59.7377 450.385 58.7356 452.432 58.1409C455.034 57.3816 457.736 57.0231 460.446 57.0777C463.426 56.9795 466.397 57.4485 469.203 58.4599C471.264 59.2274 473.109 60.4833 474.581 62.1202C475.895 63.665 476.806 65.5124 477.232 67.4969C477.707 69.6152 477.941 71.7808 477.929 73.952V98.8153H466.627V80.407C466.667 83.6657 466.217 86.9118 465.294 90.0364C464.645 92.2774 463.518 94.3502 461.991 96.1117C460.755 97.4913 459.192 98.5361 457.446 99.1494C455.793 99.7192 454.058 100.012 452.31 100.015C450.475 100.071 448.647 99.7609 446.932 99.1038C445.598 98.5818 444.401 97.761 443.432 96.7041C442.561 95.7476 441.919 94.6049 441.554 93.3627C441.149 92.1512 440.919 90.8879 440.872 89.6111C440.758 87.2713 441.419 84.9594 442.751 83.0346C444.04 81.356 445.672 79.9734 447.538 78.9793C449.499 77.92 451.586 77.1137 453.75 76.5795C455.977 76.0328 458.037 75.5012 459.946 74.9696C461.583 74.5466 463.177 73.9668 464.703 73.2381C465.26 73.0466 465.744 72.6867 466.089 72.208C466.433 71.7293 466.622 71.1553 466.627 70.565C466.64 69.8956 466.494 69.2328 466.202 68.6309C465.909 68.0289 465.479 67.505 464.946 67.102C463.479 66.1115 461.725 65.641 459.961 65.7654C458.756 65.7313 457.555 65.9166 456.416 66.3122C455.568 66.6189 454.794 67.1 454.144 67.7247C453.61 68.2563 453.183 68.8853 452.886 69.5777C452.635 70.1902 452.501 70.8446 452.492 71.5066H441.857ZM466.627 80.164C465.495 81.2097 464.12 81.9561 462.628 82.3359C461.007 82.7764 459.431 83.2168 457.916 83.6725C456.539 84.05 455.226 84.6338 454.022 85.404C453.487 85.7715 453.056 86.2735 452.774 86.8598C452.493 87.4461 452.369 88.0963 452.416 88.7454C452.41 89.3216 452.53 89.8922 452.769 90.4165C453.007 90.9409 453.358 91.406 453.797 91.7787C454.235 92.1515 454.75 92.4227 455.305 92.5731C455.86 92.7235 456.441 92.7494 457.007 92.6488C458.536 92.6945 460.051 92.3385 461.4 91.616C462.592 90.9574 463.602 90.0128 464.34 88.8669C465.119 87.6757 465.693 86.3612 466.036 84.9787C466.406 83.4885 466.59 81.9578 466.582 80.4222L466.627 80.164Z" fill="#0A414F"></path> <path d="M509.367 58.2929V44.2437H520.745V58.2929H529.001V67.7248H520.745V98.8153H509.367V67.7248H501.125V58.2929H509.367Z" fill="#0A414F"></path> <path d="M39.9663 56.1968C35.9607 53.0152 31.0169 51.2527 25.9069 51.1847C22.3147 51.1847 18.8697 49.7541 16.3296 47.2077C13.7896 44.6612 12.3626 41.2075 12.3626 37.6063C12.3626 34.0051 13.7896 30.5514 16.3296 28.005C18.8697 25.4585 22.3147 24.0279 25.9069 24.0279C26.2402 24.0279 26.5886 24.0279 26.9219 24.0279L39.2997 39.4897L42.9963 44.0462L51.0865 37.4848V37.4089L48.9503 34.6294L33.588 15.6136C30.4097 14.5075 27.0298 14.1065 23.6817 14.4381C20.3337 14.7697 17.0974 15.8261 14.1964 17.5343C11.2955 19.2425 8.79906 21.5617 6.87965 24.3318C4.96025 27.1018 3.66364 30.2566 3.07941 33.5782C2.49518 36.8997 2.63726 40.3089 3.49584 43.57C4.35442 46.8311 5.90903 49.8665 8.05223 52.4664C10.1954 55.0662 12.8762 57.1686 15.9091 58.6283C18.9421 60.0879 22.255 60.8699 25.619 60.9204C29.1308 61.0382 32.4595 62.5196 34.9022 65.0517C37.3449 67.5839 38.7104 70.9686 38.7104 74.4912C38.7104 78.0138 37.3449 81.3985 34.9022 83.9306C32.4595 86.4628 29.1308 87.9442 25.619 88.062C25.2706 88.062 24.9221 88.062 24.5888 88.062L12.2262 72.6762L8.15082 67.6488L0 74.271L2.57554 77.4605L17.9379 96.4763C20.4089 97.3571 23.0116 97.8091 25.6342 97.8129C30.4643 97.8065 35.1725 96.2916 39.1041 93.4788C43.0357 90.6659 45.9954 86.6948 47.5717 82.1176C49.1481 77.5405 49.2627 72.5846 47.8996 67.9392C46.5366 63.2937 43.7636 59.1894 39.9663 56.1968Z" fill="#C7CAC9"></path> <path d="M101.203 0V88.4872V98.8153H111.52V88.4872V0H101.203Z" fill="#0A414F"></path> </g> <defs> <clipPath id="clip0"> <rect width="529" height="100" fill="white"></rect> </clipPath> </defs> </svg> 