<?xml version="1.0" encoding="UTF-8"?> <svg xmlns="http://www.w3.org/2000/svg" width="560" height="186" viewBox="0 0 560 186" fill="none"> <path fill-rule="evenodd" clip-rule="evenodd" d="M349.694 171.27V40.2068L316.994 0L305.692 9.11353L335.163 45.3532V171.27V185.745H349.694H394.364V171.27H349.694ZM189.249 71.1497C194.227 68.8519 199.65 67.6663 205.136 67.6759L235.964 105.524V152.807C235.964 153.282 235.927 153.793 235.89 154.312C235.852 154.848 235.813 155.393 235.813 155.916C235.323 161.579 233.241 166.989 229.807 171.527C228.507 173.191 227.067 174.74 225.501 176.159C218.614 182.481 209.572 185.961 200.206 185.895L169.465 147.961V100.785C169.467 99.7104 169.525 98.6368 169.637 97.5683C170.135 91.9136 172.233 86.5155 175.686 82.0002C176.919 80.3471 178.311 78.8174 179.841 77.4327C182.634 74.8694 185.808 72.7502 189.249 71.1497ZM184.061 142.836L206.665 170.712C209.609 170.007 212.354 168.647 214.696 166.735C217.037 164.822 218.913 162.407 220.184 159.669L184.061 115.259V142.836ZM190.854 86.8261C188.519 88.7256 186.639 91.121 185.352 93.8371L221.454 138.225V110.735L198.85 82.8579C195.921 83.5708 193.189 84.9265 190.854 86.8261ZM36.8124 119.782C44.0682 119.868 51.092 122.34 56.7901 126.816C62.9509 131.623 67.1973 138.454 68.772 146.091C70.3468 153.727 69.1477 161.672 65.3884 168.51C61.6292 175.348 55.5541 180.633 48.2465 183.424C40.9389 186.215 32.8737 186.33 25.4888 183.748L3.65971 156.901L0 152.398L11.5819 143.048L17.3729 150.103L34.9395 171.847H36.4034C41.3934 171.681 46.1233 169.589 49.5943 166.014C53.0652 162.439 55.0056 157.661 55.0056 152.687C55.0056 147.714 53.0652 142.935 49.5943 139.36C46.1233 135.785 41.3934 133.694 36.4034 133.528C31.6176 133.465 26.9026 132.368 22.5848 130.311C18.2671 128.254 14.4498 125.287 11.3974 121.615C8.34491 117.943 6.13026 113.654 4.90677 109.045C3.68329 104.436 3.48022 99.6167 4.31162 94.9217C5.14302 90.2267 6.98903 85.7679 9.7218 81.8539C12.4546 77.94 16.0088 74.6645 20.1383 72.2544C24.2678 69.8442 28.8739 68.357 33.6376 67.8957C38.4013 67.4344 43.2087 68.01 47.727 69.5827L69.5561 96.4944L72.5915 100.29L61.0957 109.554L55.8429 103.12L38.2548 81.4839H36.8124C34.2113 81.3612 31.6123 81.7656 29.1726 82.6726C26.733 83.5796 24.5035 84.9704 22.6192 86.7606C20.7348 88.5508 19.2348 90.7033 18.2099 93.0878C17.185 95.4723 16.6566 98.0392 16.6566 100.633C16.6566 103.227 17.185 105.794 18.2099 108.178C19.2348 110.563 20.7348 112.715 22.6192 114.505C24.5035 116.296 26.733 117.686 29.1726 118.593C31.6123 119.5 34.2113 119.905 36.8124 119.782ZM546.803 82.2133L557.567 95.5298L559.999 98.5105V186H523.402L520.969 183.534L493.608 149.632V139.532C493.621 135.875 494.269 132.247 495.524 128.81C497.851 122.392 502.102 116.84 507.7 112.905C513.298 108.97 519.974 106.842 526.825 106.809H545.511V103.871L544.241 102.306L527.901 82.2133H493.457V67.5888H534.898L546.803 82.2133ZM529.946 171.226H545.468L545.425 121.284H526.739C524.299 121.241 521.874 121.683 519.607 122.585C517.341 123.486 515.277 124.828 513.537 126.533C511.797 128.239 510.416 130.272 509.475 132.515C508.533 134.758 508.05 137.165 508.053 139.596V144.335L529.946 171.226Z" fill="white"></path> </svg> 