<?xml version="1.0" encoding="UTF-8"?> <svg xmlns="http://www.w3.org/2000/svg" width="400" height="676" viewBox="0 0 400 676" fill="none"> <path d="M313.054 338.22C281.612 312.606 242.904 298.44 202.914 297.912C175.406 296.957 149.333 284.961 130.199 264.457C111.066 243.952 100.37 216.545 100.37 188.021C100.37 159.497 111.066 132.089 130.199 111.585C149.333 91.0806 175.406 79.0846 202.914 78.1297C205.65 78.1297 208.266 78.1297 211.002 78.1297L307.82 202.628L336.723 239.607L400 186.48L383.348 164.415L263.098 10.457C238.211 1.49064 211.741 -1.76778 185.519 0.906936C159.297 3.58165 133.948 12.1257 111.224 25.9485C88.5007 39.7713 68.9446 58.5431 53.9077 80.9665C38.8707 103.39 28.7116 128.93 24.1326 155.821C19.5536 182.712 20.6638 210.313 27.3866 236.716C34.1095 263.119 46.2845 287.694 63.0701 308.742C79.8557 329.791 100.852 346.81 124.606 358.625C148.361 370.44 174.308 376.768 200.654 377.171C214.878 376.678 229.052 379.155 242.333 384.455C255.614 389.755 267.73 397.77 277.961 408.024C288.191 418.277 296.326 430.558 301.882 444.137C307.439 457.715 310.302 472.314 310.302 487.063C310.302 501.812 307.439 516.41 301.882 529.988C296.326 543.567 288.191 555.849 277.961 566.102C267.73 576.355 255.614 584.37 242.333 589.67C229.052 594.97 214.878 597.447 200.654 596.954C198.037 596.954 195.302 596.954 192.685 596.954L95.7478 472.456L63.8715 431.655L0 485.275L20.1011 510.791L140.47 664.996C181.259 680.106 225.911 679.641 266.4 663.687C306.888 647.732 340.557 617.333 361.354 577.954C382.152 538.575 388.714 492.8 379.86 448.856C371.007 404.913 347.318 365.683 313.054 338.22Z" fill="#EFEFEF"></path> </svg> 