<?xml version="1.0" encoding="UTF-8"?> <svg xmlns="http://www.w3.org/2000/svg" width="40" height="40" viewBox="0 0 40 40" fill="none"> <path fill-rule="evenodd" clip-rule="evenodd" d="M20 0C21.4601 0 22.8837 0.156466 24.2549 0.453545L39.5465 15.7451C39.8435 17.1163 40 18.5399 40 20C40 31.0457 31.0457 40 20 40C18.5402 40 17.1169 39.8436 15.746 39.5466L0.453358 24.254C0.1564 22.8831 0 21.4598 0 20C0 8.9543 8.9543 0 20 0Z" fill="#C4C4C4"></path> <path d="M24.3943 16.0023C22.869 15.9505 21.8387 16.7682 21.2951 18.4426C21.5747 18.3256 21.8465 18.2733 22.1095 18.2733C22.6682 18.2733 22.9153 18.572 22.8493 19.1655C22.8163 19.5251 22.5706 20.048 22.1105 20.7358C21.648 21.4236 21.3024 21.7682 21.0723 21.7682C20.3748 21.7682 19.9554 18.6466 19.8133 17.7941C19.6158 16.6092 19.0892 16.055 18.2335 16.1326C17.4479 16.2025 16.0771 17.525 15 18.4216L15.5174 19.0524C16.0101 18.7258 16.2975 18.5621 16.3796 18.5621C17.2371 18.5621 17.6523 21.2908 18.3183 23.32C18.7651 24.4399 19.3009 25 19.9467 25C20.9843 25 22.2484 24.0812 23.7462 22.2426C25.1922 20.4825 25.9411 19.0953 25.9893 18.0834L25.9952 18.0791C26.0566 16.7227 25.5273 16.0285 24.3943 16.0023V16.0023Z" fill="white"></path> </svg> 