<?xml version="1.0" encoding="UTF-8"?> <svg xmlns="http://www.w3.org/2000/svg" width="1161" height="382" viewBox="0 0 1161 382" fill="none"> <path fill-rule="evenodd" clip-rule="evenodd" d="M725.082 351.748V82.5752L657.345 0L633.934 18.717L694.982 93.1448V351.748V381.475H725.082H817.613V351.748H725.082ZM392.727 146.124C403.039 141.405 414.271 138.97 425.637 138.99L489.494 216.721V313.829C489.494 314.804 489.419 315.854 489.342 316.92C489.263 318.021 489.182 319.141 489.182 320.215C488.166 331.844 483.854 342.955 476.741 352.276C474.048 355.692 471.064 358.875 467.822 361.789C453.554 374.772 434.826 381.919 415.425 381.783L351.746 303.876V206.988C351.751 204.781 351.87 202.576 352.103 200.382C353.135 188.768 357.48 177.682 364.633 168.409C367.187 165.014 370.07 161.872 373.24 159.028C379.026 153.764 385.599 149.411 392.727 146.124ZM381.98 293.35L428.803 350.603C434.901 349.154 440.588 346.361 445.438 342.433C450.288 338.505 454.175 333.544 456.807 327.922L381.98 236.715V293.35ZM396.052 178.32C391.215 182.221 387.321 187.141 384.656 192.719L459.438 283.882V227.422L412.616 170.17C406.549 171.634 400.89 174.419 396.052 178.32ZM76.9652 246.004C91.995 246.18 106.544 251.259 118.348 260.45C131.109 270.324 139.905 284.353 143.167 300.036C146.429 315.719 143.945 332.037 136.158 346.08C128.371 360.123 115.787 370.978 100.65 376.71C85.5129 382.442 68.8064 382.678 53.5092 377.376L8.29177 322.238L0.710938 312.989L24.702 293.788L36.6976 308.277L73.0856 352.934H76.1179C86.4545 352.592 96.2521 348.297 103.442 340.955C110.632 333.612 114.651 323.798 114.651 313.584C114.651 303.37 110.632 293.556 103.442 286.213C96.2521 278.871 86.4545 274.576 76.1179 274.234C66.2046 274.107 56.4378 271.853 47.4938 267.628C38.5499 263.404 30.6427 257.31 24.3198 249.768C17.9968 242.227 13.4093 233.418 10.875 223.952C8.34061 214.486 7.91996 204.589 9.64215 194.947C11.3643 185.305 15.1882 176.147 20.8489 168.109C26.5097 160.071 33.872 153.343 42.4259 148.394C50.9799 143.444 60.5211 140.389 70.3888 139.442C80.2564 138.494 90.2147 139.677 99.5739 142.907L144.791 198.177L151.079 205.972L127.266 224.997L116.386 211.785L79.9529 167.349H76.9652C71.5772 167.097 66.1935 167.927 61.14 169.79C56.0864 171.653 51.4683 174.509 47.565 178.186C43.6617 181.863 40.5545 186.283 38.4315 191.181C36.3085 196.078 35.2139 201.349 35.2139 206.677C35.2139 212.004 36.3085 217.275 38.4315 222.173C40.5545 227.07 43.6617 231.491 47.565 235.167C51.4683 238.844 56.0864 241.7 61.14 243.563C66.1935 245.426 71.5772 246.256 76.9652 246.004ZM1133.38 168.846L1155.67 196.195L1160.71 202.316V382H1084.9L1079.86 376.935L1023.19 307.308V286.565C1023.21 279.054 1024.56 271.604 1027.16 264.545C1031.98 251.363 1040.78 239.96 1052.38 231.879C1063.97 223.798 1077.8 219.428 1091.99 219.36H1130.7V213.326L1128.07 210.111L1094.22 168.846H1022.88V138.811H1108.72L1133.38 168.846ZM1098.46 351.656H1130.61L1130.52 249.087H1091.82C1086.76 248.999 1081.74 249.907 1077.04 251.759C1072.35 253.61 1068.07 256.367 1064.47 259.869C1060.87 263.371 1058 267.547 1056.05 272.153C1054.1 276.76 1053.1 281.704 1053.11 286.697V296.43L1098.46 351.656Z" fill="#C7CAC9" fill-opacity="0.2"></path> </svg> 