<?xml version="1.0" encoding="UTF-8"?> <svg xmlns="http://www.w3.org/2000/svg" width="40" height="40" viewBox="0 0 40 40" fill="none"> <path fill-rule="evenodd" clip-rule="evenodd" d="M20 0C21.4596 0 22.8827 0.15636 24.2535 0.453245L39.5468 15.7465C39.8436 17.1173 40 18.5404 40 20C40 31.0457 31.0457 40 20 40C18.5403 40 17.1172 39.8436 15.7464 39.5467L0.453265 24.2536C0.156367 22.8828 0 21.4597 0 20C0 8.95431 8.9543 0 20 0Z" fill="#C4C4C4"></path> <path d="M24 13.3091C24 13.2281 23.9665 13.1504 23.9068 13.0931C23.8471 13.0358 23.7662 13.0036 23.6818 13.0036H22.0909C21.2898 12.9653 20.5055 13.2329 19.9093 13.7481C19.3131 14.2632 18.9535 14.9839 18.9091 15.7527V17.4022H17.3182C17.2338 17.4022 17.1529 17.4343 17.0932 17.4916C17.0335 17.5489 17 17.6266 17 17.7076V19.296C17 19.377 17.0335 19.4547 17.0932 19.512C17.1529 19.5693 17.2338 19.6014 17.3182 19.6014H18.9091V25.6945C18.9091 25.7756 18.9426 25.8532 19.0023 25.9105C19.062 25.9678 19.1429 26 19.2273 26H21.1364C21.2208 26 21.3017 25.9678 21.3614 25.9105C21.421 25.8532 21.4545 25.7756 21.4545 25.6945V19.6014H23.1218C23.1926 19.6024 23.2617 19.5807 23.3181 19.5398C23.3746 19.4988 23.4152 19.441 23.4336 19.3754L23.8918 17.787C23.9045 17.7419 23.9062 17.6946 23.8968 17.6487C23.8874 17.6029 23.8672 17.5597 23.8377 17.5225C23.8082 17.4853 23.7702 17.4551 23.7266 17.4343C23.683 17.4134 23.6351 17.4024 23.5864 17.4022H21.4545V15.7527C21.4704 15.6015 21.5443 15.4614 21.662 15.3597C21.7797 15.258 21.9326 15.2021 22.0909 15.2029H23.6818C23.7662 15.2029 23.8471 15.1707 23.9068 15.1134C23.9665 15.0561 24 14.9784 24 14.8974V13.3091Z" fill="white"></path> </svg> 