<?xml version="1.0" encoding="UTF-8"?> <svg xmlns="http://www.w3.org/2000/svg" width="126" height="527" viewBox="0 0 126 527" fill="none"> <g clip-path="url(#clip0)"> <path d="M63.5497 482.149C59.9808 486.654 58.0069 492.199 57.9333 497.929V497.929C57.8002 501.87 56.1287 505.605 53.2717 508.346C50.4146 511.088 46.5957 512.62 42.6212 512.62C38.6468 512.62 34.8278 511.088 31.9708 508.346C29.1138 505.605 27.4423 501.87 27.3092 497.929C27.3092 497.537 27.3092 497.162 27.3092 496.77L44.6565 482.899L49.8092 478.758L42.4065 469.692L39.3321 472.078L17.8798 489.306C16.6305 492.872 16.1764 496.664 16.5491 500.421C16.9218 504.178 18.1123 507.809 20.0384 511.065C21.9644 514.321 24.5801 517.122 27.7045 519.277C30.8289 521.431 34.3876 522.886 38.1346 523.543C41.8815 524.199 45.7274 524.04 49.4063 523.076C53.0852 522.113 56.5095 520.369 59.4423 517.964C62.3752 515.559 64.7467 512.551 66.3929 509.148C68.0392 505.744 68.9209 502.027 68.9771 498.252C68.9083 496.215 69.2535 494.184 69.992 492.281C70.7305 490.378 71.8474 488.642 73.276 487.177C74.7047 485.711 76.4159 484.545 78.3079 483.749C80.2 482.953 82.2341 482.543 84.2892 482.543C86.3443 482.543 88.3784 482.953 90.2704 483.749C92.1624 484.545 93.8737 485.711 95.3023 487.177C96.731 488.642 97.8478 490.378 98.5863 492.281C99.3249 494.184 99.67 496.215 99.6012 498.252C99.6012 498.627 99.6012 499.019 99.6012 499.394L82.2539 513.282L76.5688 517.849L84.0401 527L87.5955 524.12L109.082 506.875C111.187 501.031 111.123 494.634 108.9 488.833C106.677 483.032 102.441 478.209 96.9538 475.229C91.4669 472.249 85.0886 471.309 78.9656 472.578C72.8426 473.846 67.3764 477.24 63.5497 482.149Z" fill="#C7CAC9" fill-opacity="0.2"></path> <path d="M65.456 325.102C65.456 315.951 69.5953 310.413 73.9235 307.294C76.4737 305.419 79.3671 304.053 82.4426 303.273L82.4426 315.44C81.1981 315.904 80.0379 316.566 79.0075 317.4C77.9075 318.346 77.0298 319.52 76.4363 320.839C75.8428 322.158 75.5479 323.59 75.5724 325.034C75.5724 330.828 80.7251 335.957 88.2823 335.957C95.8396 335.957 100.975 330.845 100.975 325.034C101.001 323.589 100.706 322.157 100.113 320.838C99.5192 319.519 98.6409 318.345 97.5399 317.4C96.5144 316.542 95.3539 315.857 94.1048 315.372L94.1048 303.205C97.2215 303.916 100.153 305.269 102.71 307.175C107.021 310.294 111.177 315.696 111.177 325.153C111.177 331.169 108.769 336.938 104.482 341.191C100.194 345.445 94.3797 347.834 88.3167 347.834C82.2536 347.834 76.4389 345.445 72.1517 341.191C67.8645 336.938 65.456 331.169 65.456 325.153L65.456 325.102Z" fill="#989A91" fill-opacity="0.2"></path> <path d="M65.4562 274.696C65.4017 271 66.6127 267.395 68.8914 264.471C69.8813 263.231 71.037 262.13 72.3265 261.199L72.3265 260.773L66.8303 260.773L66.8303 249.015L109.924 249.015L109.924 260.773L104.428 260.773L104.428 261.199C105.713 262.135 106.868 263.235 107.863 264.471C110.134 267.399 111.344 271.001 111.298 274.696C111.298 285.619 102.401 294.446 88.4372 294.446C74.4734 294.446 65.4562 285.619 65.4562 274.696ZM101.01 271.765C101.01 265.374 96.441 260.842 88.3169 260.842C80.1929 260.842 75.607 265.374 75.607 271.765C75.607 277.729 80.1929 282.262 88.3169 282.262C96.441 282.262 101.01 277.729 101.01 271.765Z" fill="#989A91" fill-opacity="0.2"></path> <path d="M66.7272 235.604L66.7272 223.846L72.2234 223.846L72.2234 223.42C70.9339 222.49 69.7782 221.389 68.7883 220.149C66.5096 217.225 65.2986 213.62 65.3531 209.924C65.3531 199.001 74.2329 190.174 88.2138 190.174C102.195 190.174 111.178 199.103 111.178 210.043C111.224 213.738 110.014 217.34 107.742 220.268C106.748 221.504 105.593 222.604 104.307 223.54L104.307 223.966L126 223.966L126 235.604L66.7272 235.604ZM101.078 212.923C101.078 206.959 96.5096 202.426 88.3856 202.426C80.2615 202.426 75.6757 206.959 75.6757 212.923C75.6757 219.314 80.2615 223.846 88.3856 223.846C96.5096 223.846 101.01 219.348 101.01 212.957L101.078 212.923Z" fill="#989A91" fill-opacity="0.2"></path> <path d="M95.9426 169.691C96.9916 169.281 97.9402 168.654 98.7251 167.851C99.6604 166.866 100.384 165.702 100.85 164.43C101.317 163.159 101.517 161.806 101.439 160.455C101.439 155.002 99.8243 153.315 97.2136 153.315C94.0705 153.315 93.143 160.029 91.7002 166.505C90.2575 172.98 86.788 179.779 78.5781 179.779C71.8109 179.779 65.456 173.474 65.456 161.716C65.456 152.719 69.0113 147.606 72.4808 144.829C74.4873 143.229 76.8381 142.11 79.351 141.557L79.351 153.315C78.5652 153.673 77.8632 154.19 77.29 154.832C75.7963 156.785 75.0479 159.2 75.1774 161.648C75.1774 165.925 76.8949 167.527 78.6125 167.527C81.7384 167.527 82.6831 160.898 84.1087 154.252C85.5342 147.606 89.0209 141.063 97.248 141.063C104.359 141.063 111.212 147.879 111.212 160.387C111.212 169.538 107.485 175.093 103.586 178.024C101.332 179.78 98.7438 181.066 95.977 181.807L95.9426 169.691Z" fill="#989A91" fill-opacity="0.2"></path> <path d="M66.7272 130.208L66.7272 118.45L91.2711 118.45C97.7119 118.45 101.01 115.042 101.01 109.64C101.01 104.238 96.3551 99.5516 89.5879 99.5516L66.7272 99.5516L66.7272 87.7935L109.924 87.7935L109.924 99.5516L103.981 99.5516L103.981 99.9776C105.4 100.748 106.64 101.804 107.622 103.079C109.971 106.012 111.227 109.66 111.178 113.406C111.178 123.92 104.909 130.208 92.9715 130.208L66.7272 130.208Z" fill="#989A91" fill-opacity="0.2"></path> <path d="M50.6334 74.3486L50.6334 62.5906L99.7384 62.5906L99.7384 52.9285L109.923 52.9285L109.923 74.3486L50.6334 74.3486Z" fill="#989A91" fill-opacity="0.2"></path> <path d="M65.4561 22.596C65.3831 19.5977 65.9245 16.6159 67.0476 13.8314C68.1706 11.0468 69.8518 8.51755 71.9893 6.39681C74.1269 4.27607 76.6762 2.60802 79.4828 1.49381C82.2893 0.3796 85.2947 -0.157583 88.3167 -0.0851904L90.8587 -0.0851905L90.8587 33.6043C96.3549 32.6841 101.009 28.1512 101.009 22.6812C101.112 19.9163 100.21 17.207 98.4675 15.047C97.7502 14.2314 96.896 13.5453 95.9427 13.0191L95.9427 0.443067C98.7287 1.33818 101.313 2.76189 103.551 4.63507C107.364 8.04321 111.177 13.4622 111.177 22.6982C111.177 28.7136 108.769 34.4827 104.482 38.7362C100.194 42.9898 94.3798 45.3794 88.3167 45.3794C82.2537 45.3794 76.439 42.9898 72.1518 38.7362C67.8646 34.4827 65.4561 28.7136 65.4561 22.6982L65.4561 22.596ZM83.6622 12.5249C81.3405 13.002 79.2605 14.2704 77.7828 16.1099C76.3052 17.9495 75.5232 20.2442 75.5725 22.596C75.5628 24.9835 76.3468 27.3076 77.8031 29.2083C79.2593 31.109 81.3066 32.4805 83.6278 33.1101L83.6622 12.5249Z" fill="#989A91" fill-opacity="0.2"></path> <path d="M0 412.64L99.0172 412.64L110.594 412.64L110.594 401.155L99.0172 401.155L-5.02043e-07 401.155L0 412.64Z" fill="#989A91" fill-opacity="0.2"></path> </g> <defs> <clipPath id="clip0"> <rect width="527" height="126" fill="white" transform="translate(0 527) rotate(-90)"></rect> </clipPath> </defs> </svg> 