<?xml version="1.0" encoding="UTF-8"?> <svg xmlns="http://www.w3.org/2000/svg" width="311" height="549" viewBox="0 0 311 549" fill="none"> <path d="M240.356 274.678C214.809 253.877 183.359 242.372 150.868 241.943V241.943C128.517 241.168 107.333 231.425 91.7871 214.773C76.2412 198.121 67.5508 175.862 67.5508 152.697C67.5508 129.532 76.2412 107.274 91.7871 90.6215C107.333 73.9693 128.517 64.227 150.868 63.4515C153.09 63.4515 155.216 63.4515 157.439 63.4515L236.104 164.56L259.588 194.592L311 151.446L297.47 133.527L199.767 8.49243C179.546 1.2106 158.039 -1.43567 136.734 0.73655C115.429 2.90877 94.8326 9.84765 76.3697 21.0736C57.9068 32.2995 42.0175 47.5447 29.8 65.7553C17.5825 83.9659 9.3282 104.708 5.60774 126.547C1.88728 148.386 2.78937 170.801 8.25165 192.244C13.7139 213.687 23.6061 233.645 37.2444 250.739C50.8828 267.833 67.9419 281.655 87.2427 291.25C106.543 300.845 127.625 305.985 149.032 306.312C160.588 305.911 172.105 307.923 182.896 312.227C193.686 316.532 203.531 323.041 211.843 331.368C220.155 339.695 226.765 349.669 231.279 360.697C235.794 371.724 238.12 383.58 238.12 395.558C238.12 407.536 235.794 419.392 231.279 430.42C226.765 441.447 220.155 451.421 211.843 459.748C203.531 468.075 193.686 474.584 182.896 478.889C172.105 483.193 160.588 485.205 149.032 484.804C146.905 484.804 144.683 484.804 142.557 484.804L63.7951 383.695L37.8956 350.56L-14 394.107L2.33214 414.829L100.132 540.063C133.273 552.334 169.553 551.957 202.45 539C235.346 526.042 262.703 501.354 279.601 469.374C296.498 437.393 301.83 400.218 294.636 364.53C287.443 328.842 268.196 296.982 240.356 274.678Z" fill="white" fill-opacity="0.8"></path> </svg> 