<?xml version="1.0" encoding="UTF-8"?> <svg xmlns="http://www.w3.org/2000/svg" width="110" height="100" viewBox="0 0 110 100" fill="none"> <path d="M39.1489 57.0015C35.2169 53.8003 30.3763 52.0299 25.3754 51.9638V51.9638C21.9354 51.8445 18.6748 50.3452 16.2821 47.7825C13.8894 45.2199 12.5518 41.7945 12.5518 38.2295C12.5518 34.6646 13.8894 31.2391 16.2821 28.6765C18.6748 26.1138 21.9354 24.6145 25.3754 24.4952C25.7175 24.4952 26.0448 24.4952 26.3869 24.4952L38.4945 40.0551L42.1089 44.6768L50.022 38.0369L47.9396 35.2793L32.9018 16.0374C29.7894 14.9168 26.4792 14.5095 23.2 14.8438C19.9208 15.1781 16.7508 16.246 13.9091 17.9735C11.0675 19.7011 8.62187 22.0473 6.74142 24.8497C4.86098 27.6522 3.59053 30.8442 3.0179 34.2051C2.44527 37.566 2.58412 41.0156 3.42484 44.3155C4.26556 47.6153 5.7881 50.6867 7.88723 53.3174C9.98635 55.948 12.612 58.0752 15.5826 59.5518C18.5533 61.0285 21.7981 61.8193 25.0928 61.8698C26.8715 61.8081 28.6441 62.1176 30.3049 62.7801C31.9658 63.4425 33.481 64.4443 34.7604 65.7257C36.0397 67.0071 37.0571 68.5421 37.7519 70.2391C38.4467 71.9362 38.8048 73.7607 38.8048 75.6041C38.8048 77.4474 38.4467 79.2719 37.7519 80.969C37.0571 82.6661 36.0397 84.201 34.7604 85.4825C33.481 86.7639 31.9658 87.7656 30.3049 88.4281C28.6441 89.0905 26.8715 89.4001 25.0928 89.3384C24.7656 89.3384 24.4235 89.3384 24.0962 89.3384L11.9737 73.7785L7.98745 68.6792L0 75.3807L2.51374 78.5697L17.5664 97.8424C22.6673 99.7308 28.2513 99.6728 33.3146 97.6787C38.3779 95.6847 42.5884 91.8854 45.1892 86.9638C47.79 82.0422 48.6106 76.3212 47.5034 70.829C46.3962 65.3369 43.4339 60.434 39.1489 57.0015Z" fill="#C7CAC9"></path> <path d="M99.8203 0V88.8147V99.1982H109.846V88.8147V0H99.8203Z" fill="#989A91"></path> </svg> 