<?xml version="1.0" encoding="UTF-8"?> <svg xmlns="http://www.w3.org/2000/svg" width="128" height="43" viewBox="0 0 128 43" fill="none"> <path fill-rule="evenodd" clip-rule="evenodd" d="M79.9296 39.1076V9.18076L72.4551 0L69.8718 2.08097L76.6081 10.3559V39.1076V42.4127H79.9296H90.1399V39.1076H79.9296ZM43.2582 16.2463C44.3961 15.7216 45.6355 15.4509 46.8896 15.4531L53.936 24.0952V34.8918C53.936 35.0002 53.9277 35.1169 53.9192 35.2355C53.9104 35.3579 53.9015 35.4824 53.9015 35.6018C53.7894 36.8947 53.3137 38.13 52.5287 39.1664C52.2316 39.5462 51.9023 39.9 51.5445 40.224C49.9702 41.6675 47.9035 42.4621 45.7628 42.447L38.7361 33.7852V23.0131C38.7366 22.7678 38.7498 22.5227 38.7755 22.2787C38.8894 20.9875 39.3688 19.7549 40.1582 18.7239C40.44 18.3464 40.758 17.9971 41.1078 17.6809C41.7463 17.0956 42.4716 16.6117 43.2582 16.2463ZM42.0723 32.615L47.239 38.9803C47.9119 38.8193 48.5395 38.5087 49.0746 38.072C49.6098 37.6353 50.0387 37.0838 50.3291 36.4586L42.0723 26.3182V32.615ZM43.6251 19.8258C43.0913 20.2595 42.6616 20.8065 42.3675 21.4267L50.6195 31.5622V25.2851L45.4528 18.9197C44.7833 19.0825 44.1589 19.3921 43.6251 19.8258ZM8.41432 27.351C10.0728 27.3705 11.6782 27.9352 12.9807 28.957C14.3889 30.0548 15.3595 31.6146 15.7194 33.3583C16.0794 35.102 15.8053 36.9162 14.946 38.4775C14.0868 40.0387 12.6982 41.2456 11.0278 41.8829C9.35752 42.5202 7.51403 42.5464 5.82605 41.957L0.836511 35.8267L0 34.7984L2.64731 32.6636L3.97097 34.2745L7.98622 39.2395H8.32083C9.46142 39.2015 10.5425 38.7239 11.3359 37.9076C12.1293 37.0913 12.5728 36.0001 12.5728 34.8645C12.5728 33.7289 12.1293 32.6378 11.3359 31.8214C10.5425 31.0051 9.46142 30.5276 8.32083 30.4896C7.22693 30.4754 6.14921 30.2248 5.16228 29.7551C4.17536 29.2855 3.30283 28.6079 2.60513 27.7695C1.90742 26.931 1.40121 25.9516 1.12156 24.8992C0.8419 23.8468 0.795483 22.7464 0.985519 21.6744C1.17556 20.6023 1.5975 19.5842 2.22214 18.6905C2.84678 17.7968 3.65917 17.0489 4.60307 16.4986C5.54696 15.9482 6.59979 15.6086 7.68864 15.5033C8.77749 15.398 9.87634 15.5294 10.9091 15.8885L15.8986 22.0335L16.5924 22.9002L13.9648 25.0154L12.7642 23.5465L8.744 18.606H8.41432C7.81978 18.578 7.22571 18.6704 6.66807 18.8775C6.11044 19.0846 5.60084 19.4021 5.17013 19.8109C4.73942 20.2197 4.39656 20.7112 4.16229 21.2556C3.92803 21.8001 3.80724 22.3862 3.80724 22.9785C3.80724 23.5708 3.92803 24.1569 4.16229 24.7014C4.39656 25.2458 4.73942 25.7373 5.17013 26.1461C5.60084 26.5549 6.11044 26.8725 6.66807 27.0796C7.22571 27.2867 7.81978 27.379 8.41432 27.351ZM124.982 18.7725L127.443 21.8132L127.999 22.4938V42.4711H119.634L119.078 41.908L112.823 34.1668V31.8606C112.827 31.0255 112.975 30.1972 113.261 29.4124C113.794 27.9468 114.765 26.679 116.045 25.7806C117.324 24.8821 118.85 24.3963 120.416 24.3887H124.687V23.7179L124.397 23.3604L120.662 18.7725H112.789V15.4332H122.261L124.982 18.7725ZM121.13 39.0975H124.677L124.668 27.6938H120.396C119.839 27.684 119.284 27.785 118.766 27.9908C118.248 28.1966 117.777 28.5032 117.379 28.8925C116.981 29.2818 116.665 29.7462 116.45 30.2583C116.235 30.7705 116.125 31.3202 116.125 31.8753V32.9574L121.13 39.0975Z" fill="#C7CAC9"></path> </svg> 