<?xml version="1.0" encoding="UTF-8"?> <svg xmlns="http://www.w3.org/2000/svg" width="40" height="40" viewBox="0 0 40 40" fill="none"> <path fill-rule="evenodd" clip-rule="evenodd" d="M20 0C21.4599 0 22.8833 0.156427 24.2543 0.453433L39.5466 15.7457C39.8436 17.1167 40 18.5401 40 20C40 31.0457 31.0457 40 20 40C18.5403 40 17.1171 39.8436 15.7463 39.5467L0.453286 24.2537C0.156375 22.8829 0 21.4597 0 20C0 8.9543 8.9543 0 20 0Z" fill="#C4C4C4"></path> <path d="M23.0224 14H17.9776C16.3357 14 15 15.3357 15 16.9776V22.0225C15 23.6643 16.3357 25 17.9776 25H23.0225C24.6643 25 26 23.6643 26 22.0225V16.9776C26 15.3357 24.6643 14 23.0224 14V14ZM20.5 22.5077C18.8415 22.5077 17.4923 21.1585 17.4923 19.5C17.4923 17.8415 18.8415 16.4923 20.5 16.4923C22.1585 16.4923 23.5077 17.8415 23.5077 19.5C23.5077 21.1585 22.1585 22.5077 20.5 22.5077V22.5077ZM23.5797 17.2016C23.0895 17.2016 22.6909 16.803 22.6909 16.3128C22.6909 15.8227 23.0895 15.424 23.5797 15.424C24.0698 15.424 24.4685 15.8227 24.4685 16.3128C24.4685 16.803 24.0698 17.2016 23.5797 17.2016Z" fill="white"></path> </svg> 